<svg xmlns="http://www.w3.org/2000/svg" viewBox="0 0 448 286" enable-background="new 0 0 448 286"><g fill="#32353e"><path d="m359.4 58.5c0 .7-.1 1.4-.4 2s-.6 1.2-1 1.6c-.4.4-1 .8-1.6 1-.6.2-1.3.4-2.1.4h-3.9v-10.1h3.9c.8 0 1.5.1 2.1.4.6.2 1.2.6 1.6 1 .4.4.8 1 1 1.6s.4 1.3.4 2.1m-1.9 0c0-.6-.1-1.1-.2-1.5-.1-.4-.4-.8-.6-1.1s-.6-.5-1-.7c-.4-.2-.8-.2-1.3-.2h-2v7h2c.5 0 .9-.1 1.3-.2.4-.2.7-.4 1-.7s.5-.7.6-1.1.2-1 .2-1.5"/><path d="m362.9 54.3c0 .1 0 .3-.1.4-.1.1-.1.2-.2.3-.1.1-.2.2-.4.2-.1.1-.3.1-.4.1-.1 0-.3 0-.4-.1-.1-.1-.2-.1-.3-.2-.1-.1-.2-.2-.2-.3-.1-.1-.1-.3-.1-.4 0-.2 0-.3.1-.4s.1-.3.2-.4.2-.2.3-.2c.1-.1.3-.1.4-.1.2 0 .3 0 .4.1.1.1.3.1.4.2s.2.2.2.4.1.2.1.4m-.3 2v7.2h-1.7v-7.2h1.7"/><path d="m368.8 57.7c0 .1-.1.1-.1.2-.1 0-.1 0-.2 0-.1 0-.2 0-.3-.1-.1 0-.2-.1-.3-.2-.1-.1-.3-.1-.4-.2-.2 0-.4-.1-.6-.1-.3 0-.6.1-.8.2-.2.1-.3.3-.3.6 0 .2 0 .3.2.4s.2.2.4.3c.2.1.4.2.6.2s.4.1.6.2c.2.1.4.2.6.3.2.1.4.2.6.4.2.1.3.3.4.5.1.2.2.5.2.7 0 .3-.1.7-.2 1-.1.3-.3.5-.6.8-.2.2-.5.4-.9.5-.4.1-.8.2-1.2.2-.2 0-.5 0-.7-.1-.2 0-.5-.1-.7-.2-.2-.1-.4-.2-.6-.3s-.3-.2-.5-.4l.4-.7c.1-.1.1-.1.2-.2.1 0 .2-.1.3-.1s.2 0 .3.1.2.1.3.2c.1.1.3.1.4.2.2.1.4.1.6.1.2 0 .4 0 .5-.1.1 0 .3-.1.4-.2.1-.1.2-.2.2-.3 0-.1.1-.2.1-.3 0-.2-.1-.3-.2-.4-.1-.1-.2-.2-.4-.3-.2-.1-.4-.2-.6-.2-.2-.1-.4-.1-.7-.2s-.4-.2-.7-.3c-.2-.1-.4-.2-.6-.4-.2-.2-.3-.3-.4-.6s-.2-.5-.2-.8c0-.3.1-.6.2-.8s.3-.5.5-.7c.2-.2.5-.4.8-.5.3-.1.7-.2 1.2-.2.5 0 .9.1 1.4.2.4.2.7.4 1 .6l-.2 1"/><path d="m375.7 57.9c-.1.1-.1.1-.2.2 0 0-.1.1-.2.1-.1 0-.2 0-.3-.1-.1-.1-.2-.1-.3-.2-.1-.1-.3-.1-.4-.2-.2-.1-.4-.1-.6-.1-.3 0-.6.1-.8.2-.2.1-.4.3-.6.5-.2.2-.3.5-.3.7-.1.3-.1.6-.1 1 0 .4 0 .7.1 1 .1.3.2.5.4.8.2.2.3.4.6.5.2.1.5.2.7.2.3 0 .5 0 .7-.1.2-.1.3-.1.4-.2.1-.1.2-.2.3-.2.1-.1.2-.1.3-.1.1 0 .2.1.3.2l.5.6c-.2.2-.4.4-.6.6-.2.2-.5.3-.7.4-.2.1-.5.2-.7.2-.3 0-.5.1-.8.1-.4 0-.9-.1-1.3-.2-.4-.2-.7-.4-1-.7-.3-.3-.5-.7-.7-1.2-.2-.5-.3-1-.3-1.6 0-.5.1-1 .2-1.5.2-.5.4-.8.7-1.2.3-.3.7-.6 1.1-.8.4-.2.9-.3 1.5-.3.5 0 1 .1 1.4.3.4.2.8.4 1.1.7l-.4.4"/><path d="m380.4 56.2c.5 0 1 .1 1.5.3.4.2.8.4 1.1.7.3.3.5.7.7 1.2.2.5.3 1 .3 1.5 0 .6-.1 1.1-.3 1.5-.2.5-.4.8-.7 1.2-.3.3-.7.6-1.1.7-.4.2-.9.3-1.5.3-.5 0-1-.1-1.5-.3-.4-.2-.8-.4-1.1-.7s-.6-.7-.7-1.2c-.2-.5-.3-1-.3-1.5 0-.6.1-1.1.3-1.5.2-.5.4-.8.7-1.2s.7-.6 1.1-.7c.5-.2 1-.3 1.5-.3m0 6.1c.6 0 1-.2 1.3-.6s.4-1 .4-1.8c0-.8-.1-1.4-.4-1.8-.3-.4-.7-.6-1.3-.6-.6 0-1.1.2-1.3.6s-.4 1-.4 1.8.1 1.4.4 1.8c.3.4.7.6 1.3.6"/><path d="m388.7 63.5h-1.6l-2.9-7.2h1.4c.1 0 .2 0 .3.1.1.1.1.1.2.2l1.4 3.8c.1.2.1.4.2.7.1.2.1.4.1.6 0-.2.1-.4.1-.6.1-.2.1-.4.2-.7l1.4-3.8c0-.1.1-.2.2-.2s.2-.1.3-.1h1.4l-2.7 7.2"/><path d="m395.3 56.2c.5 0 .9.1 1.2.2.4.1.7.4 1 .6.3.3.5.6.6 1 .2.4.2.9.2 1.4 0 .1 0 .2 0 .3s0 .2-.1.2c0 0-.1.1-.1.1-.1 0-.1 0-.2 0h-4.4c.1.7.2 1.3.6 1.6s.8.5 1.4.5c.3 0 .5 0 .7-.1s.4-.1.5-.2c.2-.1.3-.2.4-.2.1-.1.2-.1.3-.1.1 0 .1 0 .2 0 .1 0 .1.1.1.1l.5.6c-.2.2-.4.4-.6.6-.2.2-.5.3-.7.4-.3.1-.5.2-.8.2-.3 0-.5.1-.8.1-.5 0-1-.1-1.4-.2-.4-.2-.8-.4-1.1-.7s-.6-.7-.7-1.2-.3-1-.3-1.7c0-.5.1-1 .2-1.4s.4-.8.7-1.1c.3-.3.7-.6 1.1-.8.5-.1 1-.2 1.5-.2m0 1.3c-.5 0-.9.1-1.2.4-.3.3-.5.7-.5 1.2h3.2c0-.2 0-.4-.1-.6-.1-.2-.2-.4-.3-.5s-.3-.3-.5-.4-.3-.1-.6-.1"/><path d="m399.8 63.5v-7.2h1c.2 0 .3 0 .4.1.1.1.1.2.1.3l.1.9c.3-.4.6-.8.9-1.1.3-.3.7-.4 1.2-.4.4 0 .6.1.9.2l-.2 1.3c0 .1 0 .1-.1.2 0 0-.1.1-.2.1-.1 0-.2 0-.3 0-.1 0-.3 0-.5 0-.4 0-.7.1-.9.3-.3.2-.5.5-.7.9v4.5h-1.7z"/><path d="m408.1 65.5c-.1.1-.1.2-.2.3-.1.1-.2.1-.4.1h-1.3l1.3-2.9-2.9-6.6h1.5c.1 0 .2 0 .3.1.1.1.1.1.2.2l1.5 3.7c.1.1.1.2.1.4 0 .1.1.3.1.4 0-.1.1-.3.1-.4 0-.1.1-.3.1-.4l1.4-3.7c0-.1.1-.2.2-.2.1-.1.2-.1.3-.1h1.4l-3.7 9.1"/></g><g fill="#00bae9"><path d="m322 278l-316-.2c-.6 0-1-.4-1-1 0-.6.4-1 1-1l316 .2c.6 0 1 .4 1 1 0 .6-.4 1-1 1"/><path d="m340.9 278c0 0 0 0 0 0h-7.7c-.6 0-1-.4-1-1 0-.6.5-1 1-1l7.7.1c.6 0 1 .4 1 1 0 .5-.5.9-1 .9"/><path d="m376.1 278.2c0 0 0 0 0 0h-16c-.6 0-1-.4-1-1 0-.6.4-1 1-1h16c.6 0 1 .4 1 1 0 .6-.5 1-1 1"/><path d="m83.1 282c0 0 0 0 0 0h-10.8c-.6 0-1-.4-1-1 0-.6.4-1 1-1h10.8c.6 0 1 .4 1 1 0 .6-.4 1-1 1"/><path d="m301.8 282.2c0 0 0 0 0 0l-194.6-.2c-.6 0-1-.4-1-1s.4-1 1-1c0 0 0 0 0 0l194.6.2c.6 0 1 .4 1 1s-.4 1-1 1"/><path d="m167.1 271.8c-3.6 0-7.3 0-10.8 0-3.7 0-7.5 0-11.2 0h-9c-8.3 0-16.5 0-24.8 0-10.9 0-19.7-3.7-24.9-10.4-4.7-6-6-14.2-3.7-22.9.9-3.4 2.4-6.9 4.4-10.5l.3-.5h.5l110.6-9.1 5.2 10.3c4.3 7.2 5.7 15.6 4.1 23.7-2.2 11.4-13 19.2-26.7 19.4-4.6 0-9.3 0-14 0m-21.6-2c3.6 0 7.2 0 10.9 0 8.1 0 16.6 0 24.8 0 12.8-.1 22.7-7.3 24.8-17.7 1.5-7.6.1-15.6-3.9-22.4v-.1l-4.6-9.1-108.7 9c-1.8 3.2-3.2 6.4-3.9 9.5-2.1 8.1-.9 15.7 3.4 21.2 4.8 6.2 13.1 9.6 23.3 9.6 8.2 0 16.5 0 24.7 0h9c-.1 0 0 0 .2 0"/><path d="m168.9 277.4c-4 0-7.9 0-11.8 0-4 0-8 0-12 0h-10.1c-8.8 0-17.6 0-26.4 0-11.1 0-20.4-4-26-11.2-5.7-7.2-7.4-17.1-4.8-27.9.9-4 2.5-8.1 4.7-12.3 3.1-6 6.5-12 9.7-17.7 2.9-5.2 5.9-10.7 8.8-16 1.5-2.8 3.4-3.9 6.7-3.9 0 0 0 0 .1 0 25.3.1 50.6.1 75 0 3.3 0 5.2 1.1 6.7 4 4 7.5 8.2 15.2 12.3 22.5 2.3 4.2 4.6 8.4 6.9 12.6 4.7 8.5 6.1 17.7 4.4 27.3-2.4 13.4-14 22.5-28.8 22.7-5.2-.1-10.3-.1-15.4-.1m-23.6-2c3.9 0 7.9 0 11.8 0 8.9 0 18 0 27-.1 13.8-.2 24.6-8.6 26.9-21.1 1.6-9.1.2-17.9-4.2-26-2.3-4.2-4.6-8.4-6.9-12.6-4.1-7.4-8.2-15-12.3-22.5-1.2-2.2-2.4-2.9-5-2.9-24.4.1-49.7.1-75 0-2.6 0-3.8.7-5 2.9-2.9 5.4-5.9 10.8-8.8 16.1-3.2 5.8-6.5 11.8-9.6 17.7-2.1 4-3.7 8-4.6 11.8-2.4 10.2-.9 19.5 4.4 26.2 5.3 6.7 14 10.4 24.5 10.4 8.8 0 17.6 0 26.4 0h10.1c.2.1.3.1.3.1"/><path d="m113.5 122.6l-9.7-.1-.3-.3c-8.4-7.8-15.9-16.5-23.1-25-3.2-3.7-6.5-7.6-9.8-11.2l-.6-.7.6-.7c5.4-5.6 11.8-8.1 20.6-8 28.1.4 56.7.3 84.4.3 10 0 20 0 30.1 0h8.4l-.6 1.4c-.4.9-.7 1.6-.9 2.3-.5 1.2-.9 2.2-1.4 3.1-2.5 4.4-5.1 8.7-7.6 13.1-4.2 7.2-8.5 14.6-12.7 21.9-1.6 2.8-3.5 3.9-6.7 3.9 0 0 0 0-.1 0-26.5-.2-49.5-.2-70.6 0m-9-2.1l8.9.1c21.1-.1 44.2-.2 70.5 0 2.5 0 3.8-.7 5-2.9 4.2-7.3 8.5-14.7 12.7-21.9 2.6-4.4 5.1-8.7 7.6-13.1.5-.8.8-1.7 1.3-2.9.1-.3.2-.6.4-.9h-5.3c-10 0-20 0-30.1 0-27.7.1-56.3.1-84.4-.3-8-.1-13.6 1.9-18.5 6.7 3.1 3.5 6.2 7.1 9.2 10.6 7.2 8.4 14.5 17 22.7 24.6"/><path d="m145.3 154c-9.4 0-18.8-.1-28.2-.2-2 0-4.6-2-5.5-3.7-3-5.8-5.8-11.8-8.5-17.7l-1.6-3.5c-1.4-3.1-1.7-5.2-.7-6.7.9-1.5 2.9-2.2 6.3-2.2 9.1 0 18.2 0 27.3 0h10.2 1c3.7 0 7.4 0 11 0 8.8 0 18 0 26.9 0 3.3 0 5.3.7 6.3 2.2 1 1.5.7 3.6-.7 6.6l-1.8 3.9c-2.6 5.7-5.4 11.6-8.3 17.3-.9 1.8-3.4 3.7-5.4 3.7-9.4.3-18.9.3-28.3.3m-22.1-32c-5.4 0-10.8 0-16.1 0-2.5 0-4.1.4-4.6 1.3-.5.8-.3 2.4.8 4.8l1.6 3.5c2.7 5.8 5.5 11.8 8.5 17.6.6 1.2 2.6 2.6 3.7 2.6 18.8.2 37.7.2 56.4 0 1.1 0 3-1.4 3.7-2.7 2.9-5.7 5.7-11.6 8.3-17.3l1.8-3.9c1.1-2.3 1.3-3.9.8-4.7-.5-.8-2.1-1.3-4.6-1.3-9 0-18.1 0-26.9 0-3.3 0-6.7 0-10 0h-12.2c-3.8.1-7.5.1-11.2.1"/><path d="m167.2 190.3c-3.5 0-7.1 0-10.5 0-3.8 0-7.7 0-11.5 0v-1 1h-10.4c-9 0-18.4 0-27.6 0-3.7 0-5.6-.6-6.6-2.1-.9-1.5-.7-3.6.9-7 .7-1.5 1.4-2.9 2-4.4 2.6-5.6 5.2-11.3 8.1-16.8 1-1.8 3.6-3.5 5.6-3.6 17.8-.2 36.6-.2 56 0 1.9 0 4.5 1.6 5.3 3.2 3.7 7.2 7.1 14.5 10.8 22.6 1.2 2.6 1.3 4.5.4 5.9-.9 1.4-2.8 2.1-5.7 2.1-5.5.1-11.1.1-16.8.1m-21.1-2c3.5 0 7.1 0 10.6 0 9 0 18.3 0 27.4 0 2.1 0 3.5-.4 4-1.2.5-.8.3-2.1-.6-4-3.7-8.1-7-15.3-10.7-22.5-.5-1-2.4-2.1-3.6-2.2-19.4-.2-38.2-.2-55.9 0-1.2 0-3.2 1.3-3.8 2.5-2.9 5.5-5.5 11.2-8.1 16.7-.7 1.5-1.4 2.9-2 4.4-1.2 2.6-1.6 4.3-1.1 5.1.5.8 2.1 1.2 4.9 1.2 9.2 0 18.5 0 27.6 0h10.4c.3 0 .6 0 .9 0"/><path d="m110.5 118c-.3 0-.6-.1-.8-.4l-20.6-28.1c-.3-.4-.2-1.1.2-1.4.4-.3 1.1-.2 1.4.2l20.6 28.1c.3.4.2 1.1-.2 1.4-.2.1-.4.2-.6.2"/><path d="m94.9 233.5c-.1 0-.3 0-.4-.1-.5-.2-.7-.8-.5-1.3l16.2-32.6c.2-.5.8-.7 1.3-.5.5.2.7.8.5 1.3l-16.2 32.6c-.2.4-.5.6-.9.6"/><path d="m89 245.6c-.2 0-.3 0-.4-.1-.5-.2-.7-.8-.4-1.3l2.8-5.6c.2-.5.9-.7 1.3-.4.5.2.7.8.4 1.3l-2.8 5.6c-.1.3-.5.5-.9.5"/><path d="m182.9 113.9c-.2 0-.4 0-.5-.1-.5-.3-.6-.9-.3-1.4l10-16.5c.3-.5.9-.6 1.4-.3.5.3.6.9.3 1.4l-10 16.5c-.2.3-.5.4-.9.4"/><path d="m196.1 91.6c-.2 0-.4 0-.5-.1-.5-.3-.6-.9-.3-1.4l2.7-4.5c.3-.5.9-.6 1.4-.3.5.3.6.9.3 1.4l-2.7 4.5c-.2.2-.5.4-.9.4"/><path d="m179.3 158.2h-68.5c-1.7 0-3.1-1.4-3.1-3.1s1.4-3.1 3.1-3.1h68.5c1.7 0 3.1 1.4 3.1 3.1s-1.4 3.1-3.1 3.1m-68.5-4.2c-.6 0-1.1.5-1.1 1.1s.5 1.1 1.1 1.1h68.5c.6 0 1.1-.5 1.1-1.1s-.5-1.1-1.1-1.1h-68.5"/><path d="m198.2 176.2c-.8 0-1.5-.3-2.2-.9l-18.9-18c-.6-.6-.9-1.4-1-2.2 0-.8.3-1.6.9-2.2.6-.6 1.3-.9 2.2-1 .8 0 1.6.3 2.2.9.4.4.4 1 0 1.4-.4.4-1 .4-1.4 0-.2-.2-.5-.3-.8-.3-.3 0-.6.1-.8.3-.4.4-.4 1.2 0 1.6l18.9 18c.4.4 1.2.4 1.6 0 .4-.4.4-1.2 0-1.6l-13.4-12.7c-.4-.4-.4-1 0-1.4.4-.4 1-.4 1.4 0l13.4 12.7c.6.6.9 1.3 1 2.2 0 .8-.3 1.6-.9 2.2-.5.7-1.4 1-2.2 1"/><path d="m205.1 162c-.1 0-.3 0-.4 0l-25.9-3.6c-1.7-.2-2.9-1.8-2.7-3.5.1-.8.5-1.6 1.2-2.1.7-.5 1.5-.7 2.3-.6l25.9 3.6c1.7.2 2.9 1.8 2.7 3.5-.1.8-.5 1.6-1.2 2.1-.5.4-1.2.6-1.9.6m-25.8-7.9c-.6 0-1 .4-1.1 1-.1.6.3 1.2 1 1.3l25.8 3.6c.3 0 .6 0 .8-.2.2-.2.4-.4.4-.7.1-.6-.3-1.2-1-1.3l-25.9-3.6c.1-.1 0-.1 0-.1"/></g><circle cx="204.8" cy="158.9" r="4.2" fill="#fff"/><path d="m204.8 164.1c-2.9 0-5.2-2.4-5.2-5.2s2.4-5.2 5.2-5.2 5.2 2.4 5.2 5.2-2.3 5.2-5.2 5.2m0-8.5c-1.8 0-3.2 1.5-3.2 3.2s1.5 3.2 3.2 3.2 3.2-1.5 3.2-3.2-1.4-3.2-3.2-3.2" fill="#00bae9"/><circle cx="198.2" cy="173" r="4.2" fill="#fff"/><g fill="#00bae9"><path d="m198.2 178.2c-2.9 0-5.2-2.4-5.2-5.2s2.4-5.2 5.2-5.2 5.2 2.4 5.2 5.2-2.3 5.2-5.2 5.2m0-8.4c-1.8 0-3.2 1.5-3.2 3.2s1.5 3.2 3.2 3.2 3.2-1.5 3.2-3.2-1.4-3.2-3.2-3.2"/><path d="m137.6 129.5h-35.2c-.6 0-1-.4-1-1s.4-1 1-1h35.2c.6 0 1 .4 1 1s-.5 1-1 1"/><path d="m120 134.3h-13.7c-.6 0-1-.4-1-1s.4-1 1-1h13.7c.6 0 1 .4 1 1s-.5 1-1 1"/><path d="m113.1 143h-4.5c-.6 0-1-.4-1-1s.4-1 1-1h4.5c.6 0 1 .4 1 1s-.4 1-1 1"/><path d="m137.6 148.4h-25.1c-.6 0-1-.4-1-1s.4-1 1-1h25.1c.6 0 1 .4 1 1s-.5 1-1 1"/><path d="m135.8 165.1h-25.1c-.6 0-1-.4-1-1s.4-1 1-1h25.1c.6 0 1 .4 1 1s-.5 1-1 1"/><path d="m118.5 174h-11.3c-.6 0-1-.4-1-1s.4-1 1-1h11.3c.6 0 1 .4 1 1s-.5 1-1 1"/><path d="m113.5 169.8h-4.8c-.6 0-1-.4-1-1s.4-1 1-1h4.8c.6 0 1 .4 1 1s-.5 1-1 1"/><path d="m125 182.6h-22.5c-.6 0-1-.4-1-1s.4-1 1-1h22.5c.6 0 1 .4 1 1s-.4 1-1 1"/><path d="m125 154.9c-.6 0-1-.4-1-1v-.8c0-.6.4-1 1-1s1 .4 1 1v.8c0 .6-.4 1-1 1"/><path d="m161.7 156c-.6 0-1-.4-1-1v-2c0-.6.4-1 1-1s1 .4 1 1v2c0 .5-.5 1-1 1"/><path d="m164.4 155.4c-.6 0-1-.4-1-1v-1c0-.6.4-1 1-1s1 .4 1 1v1c0 .6-.4 1-1 1"/><path d="m131.9 158.2c-.6 0-1-.4-1-1v-2c0-.6.4-1 1-1s1 .4 1 1v2c0 .6-.4 1-1 1"/><path d="m112.5 157.7c-.6 0-1-.4-1-1v-1c0-.6.4-1 1-1s1 .4 1 1v1c0 .6-.5 1-1 1"/><path d="m190.6 169.8c-.2 0-.5-.1-.7-.3-.4-.4-.4-1 0-1.4l.9-.9c.4-.4 1-.4 1.4 0 .4.4.4 1 0 1.4l-.9.9c-.2.1-.5.3-.7.3"/><path d="m190.4 157.1c0 0-.1 0-.1 0-.5-.1-.9-.6-.9-1.1l.1-.9c.1-.5.6-.9 1.1-.9.5.1.9.6.9 1.1l-.1.9c0 .6-.5.9-1 .9"/><path d="m195 160.6c-.1 0-.1 0-.2 0-.5-.1-.9-.6-.8-1.2l.3-1.4c.1-.5.6-.9 1.2-.8.5.1.9.6.8 1.2l-.3 1.4c-.1.5-.5.8-1 .8"/><path d="m145.2 213c-.7 0-1.4-.2-2-.6-.9-.7-1.5-1.8-1.5-3.2-.1-3.4 1.2-6.4 2.6-9.6l.9-2.1 1 2c1.5 3.2 2.5 6 2.7 9 .2 2.1-.7 3.8-2.4 4.3-.4.1-.9.2-1.3.2m.1-10.6c-.9 2.3-1.6 4.4-1.6 6.7 0 .7.2 1.3.6 1.6.4.3.9.3 1.6.1.7-.2 1.1-1.1 1-2.2-.1-2-.7-4-1.6-6.2"/><path d="m82.7 79.1c-.4 0-.7-.2-.9-.6l-.5-.9c-5.1-10.5-12.4-22.9-18.3-32.7-2-3.3-3.9-6.5-5.5-9.3-.6-1.1-1.1-2.3-1.8-3.8-.3-.9-.7-1.8-1.1-2.8l-.6-1.4h9.9c23.8 0 53.9-5.2 83.1-10.2 28-4.8 57-9.8 80-10.1 11-.1 18.5 2.8 25.2 9.8l.6.7-.6.7c-5.4 6-13.8 17.3-22.6 29.2-7.9 10.7-16.1 21.7-23.4 30.7-.3.4-1 .5-1.4.1-.4-.3-.5-1-.1-1.4 7.2-9.1 15.4-20.1 23.3-30.7 8.6-11.5 16.6-22.4 22.1-28.6-6.1-6.1-13.1-8.6-23.1-8.5-22.9.3-51.8 5.3-79.7 10.1-29.2 5-59.4 10.2-83.4 10.2h-6.9c.2.5.4 1 .6 1.4.6 1.5 1 2.6 1.6 3.6 1.6 2.8 3.5 5.9 5.5 9.3 5.9 9.9 13.2 22.3 18.4 32.9l.5.9c.2.5 0 1.1-.5 1.3-.1 0-.3.1-.4.1"/><path d="m191 78.5c-.2 0-.4-.1-.6-.2-.5-.3-.6-.9-.3-1.4l30.1-44.4c.3-.5.9-.6 1.4-.3.5.3.6.9.3 1.4l-30.1 44.4c-.2.4-.5.5-.8.5"/><path d="m112.6 35.6c-19.3 0-38.5-1.3-55.8-4.8-.5-.1-.9-.6-.8-1.2.1-.5.6-.9 1.2-.8 77.2 15.4 191.4-11.5 192.5-11.7.5-.1 1.1.2 1.2.7s-.2 1.1-.7 1.2c-.9.2-70.2 16.6-137.6 16.6"/><path d="m333 61.4h-94.7c-.6 0-1-.4-1-1s.4-1 1-1h94.7c.6 0 1 .4 1 1s-.4 1-1 1"/></g><g fill="#32353e"><path d="m357.4 99.1c.1 0 .2 0 .3.1l.7.8c-.4.5-.9.9-1.5 1.2-.6.3-1.3.4-2.2.4-.8 0-1.4-.1-2-.4s-1.1-.6-1.5-1.1c-.4-.5-.8-1-1-1.6s-.3-1.3-.3-2.1c0-.8.1-1.5.4-2.1s.6-1.2 1.1-1.6c.5-.5 1-.8 1.6-1.1.6-.3 1.3-.4 2.1-.4.8 0 1.4.1 2 .4.6.2 1 .6 1.4 1l-.6.9c0 .1-.1.1-.1.1-.1 0-.1.1-.2.1-.1 0-.2 0-.3-.1-.1-.1-.3-.2-.4-.3s-.4-.2-.7-.3-.6-.1-1-.1c-.5 0-.9.1-1.3.2-.4.2-.7.4-1 .7s-.5.7-.7 1.1-.2.9-.2 1.5c0 .6.1 1.1.2 1.5s.4.8.7 1.1.6.5 1 .7.8.2 1.2.2c.3 0 .5 0 .7 0 .2 0 .4-.1.6-.1.2-.1.3-.1.5-.2s.3-.2.5-.4c0 0 .1-.1.1-.1-.3.1-.2 0-.1 0"/><path d="m362.8 94.2c.5 0 1 .1 1.5.3.4.2.8.4 1.1.7.3.3.5.7.7 1.2.2.5.3 1 .3 1.5 0 .6-.1 1.1-.3 1.5-.2.5-.4.8-.7 1.2-.3.3-.7.6-1.1.7-.4.2-.9.3-1.5.3-.5 0-1-.1-1.5-.3-.4-.2-.8-.4-1.1-.7s-.6-.7-.7-1.2c-.2-.5-.3-1-.3-1.5 0-.6.1-1.1.3-1.5.2-.5.4-.8.7-1.2s.7-.6 1.1-.7c.4-.2.9-.3 1.5-.3m0 6.1c.6 0 1-.2 1.3-.6s.4-1 .4-1.8c0-.8-.1-1.4-.4-1.8-.3-.4-.7-.6-1.3-.6-.6 0-1.1.2-1.3.6s-.4 1-.4 1.8.1 1.4.4 1.8c.2.4.6.6 1.3.6"/><path d="m367.6 101.5v-7.2h1.1c.2 0 .4.1.4.3l.1.6c.1-.1.3-.3.5-.4.2-.1.3-.2.5-.3.2-.1.4-.2.6-.2.2 0 .4-.1.7-.1.4 0 .7.1 1 .2.3.1.6.3.8.6.2.2.4.5.5.9.1.3.2.7.2 1.1v4.6h-1.7v-4.6c0-.4-.1-.8-.3-1s-.5-.4-.9-.4c-.3 0-.6.1-.8.2-.3.1-.5.3-.7.6v5.2h-2z"/><path d="m379.9 95.7c0 .1-.1.1-.1.2-.1 0-.1 0-.2 0-.1 0-.2 0-.3-.1-.1 0-.2-.1-.3-.2-.1-.1-.3-.1-.4-.2-.2 0-.4-.1-.6-.1-.3 0-.6.1-.8.2-.2.1-.3.3-.3.6 0 .2 0 .3.2.4s.2.2.4.3c.2.1.4.2.6.2s.4.1.6.2c.2.1.4.2.6.3.2.1.4.2.6.4.2.1.3.3.4.5.1.2.2.5.2.7 0 .3-.1.7-.2 1-.1.3-.3.5-.6.8-.2.2-.5.4-.9.5-.4.1-.8.2-1.2.2-.2 0-.5 0-.7-.1-.2 0-.5-.1-.7-.2-.2-.1-.4-.2-.6-.3s-.3-.2-.5-.4l.4-.7c.1-.1.1-.1.2-.2.1 0 .2-.1.3-.1s.2 0 .3.1.2.1.3.2c.1.1.3.1.4.2.2.1.4.1.6.1.2 0 .4 0 .5-.1.1 0 .3-.1.4-.2.1-.1.2-.2.2-.3 0-.1.1-.2.1-.3 0-.2-.1-.3-.2-.4-.1-.1-.2-.2-.4-.3-.2-.1-.4-.2-.6-.2-.2-.1-.4-.1-.7-.2s-.4-.2-.7-.3c-.2-.1-.4-.2-.6-.4-.2-.2-.3-.3-.4-.6s-.2-.5-.2-.8c0-.3.1-.6.2-.8s.3-.5.5-.7c.2-.2.5-.4.8-.5.3-.1.7-.2 1.2-.2.5 0 .9.1 1.4.2.4.2.7.4 1 .6l-.2 1"/><path d="m383.8 92.3c0 .1 0 .3-.1.4-.1.1-.1.2-.2.3-.1.1-.2.2-.4.2-.1.1-.3.1-.4.1-.1 0-.3 0-.4-.1-.1-.1-.2-.1-.3-.2-.1-.1-.2-.2-.2-.3-.1-.1-.1-.3-.1-.4 0-.2 0-.3.1-.4s.1-.3.2-.4.2-.2.3-.2c.1-.1.3-.1.4-.1.2 0 .3 0 .4.1.1.1.3.1.4.2s.2.2.2.4.1.2.1.4m-.2 2v7.2h-1.7v-7.2h1.7"/><path d="m390.6 101.5c-.2 0-.4-.1-.4-.3l-.1-.7c-.1.2-.3.3-.5.5-.2.1-.3.3-.5.4-.2.1-.4.2-.6.2s-.5.1-.7.1c-.4 0-.8-.1-1.1-.2-.3-.2-.6-.4-.8-.7-.2-.3-.4-.7-.5-1.2s-.2-1-.2-1.6c0-.5.1-1 .2-1.5.1-.5.4-.9.6-1.2s.6-.6 1-.8c.4-.2.8-.3 1.3-.3.4 0 .7.1 1 .2.3.1.5.3.8.5v-3.8h1.7v10.4h-1.2m-2.3-1.2c.4 0 .7-.1.9-.2.3-.1.5-.4.7-.6v-3.2c-.2-.2-.4-.4-.6-.5-.2-.1-.5-.1-.7-.1-.3 0-.5 0-.7.1-.2.1-.4.2-.5.4-.1.2-.3.5-.3.8-.1.3-.1.7-.1 1.1 0 .4 0 .8.1 1.1.1.3.2.5.3.7.1.2.3.3.5.4-.1-.1.1 0 .4 0"/><path d="m396.5 94.2c.5 0 .9.1 1.2.2.4.1.7.4 1 .6.3.3.5.6.6 1 .2.4.2.9.2 1.4 0 .1 0 .2 0 .3s0 .2-.1.2c0 0-.1.1-.1.1-.1 0-.1 0-.2 0h-4.4c.1.7.2 1.3.6 1.6.3.3.8.5 1.4.5.3 0 .5 0 .7-.1s.4-.1.5-.2c.2-.1.3-.2.4-.2.1-.1.2-.1.3-.1.1 0 .1 0 .2 0 .1 0 .1.1.1.1l.5.6c-.2.2-.4.4-.6.6-.2.2-.5.3-.7.4s-.5.2-.8.2c-.3 0-.5.1-.8.1-.5 0-1-.1-1.4-.2-.4-.2-.8-.4-1.1-.7s-.6-.7-.7-1.2c-.2-.5-.3-1-.3-1.7 0-.5.1-1 .2-1.4.2-.4.4-.8.7-1.1.3-.3.7-.6 1.1-.8.4-.1.9-.2 1.5-.2m0 1.3c-.5 0-.9.1-1.2.4-.3.3-.5.7-.5 1.2h3.2c0-.2 0-.4-.1-.6-.1-.2-.2-.4-.3-.5s-.3-.3-.5-.4-.3-.1-.6-.1"/><path d="m401 101.5v-7.2h1c.2 0 .3 0 .4.1.1.1.1.2.1.3l.1.9c.3-.4.6-.8.9-1.1.3-.3.7-.4 1.2-.4.4 0 .6.1.9.2l-.2 1.3c0 .1 0 .1-.1.2 0 0-.1.1-.2.1-.1 0-.2 0-.3 0-.1 0-.3 0-.5 0-.4 0-.7.1-.9.3-.3.2-.5.5-.7.9v4.5h-1.7z"/><path d="m412.1 101.5h-.8c-.2 0-.3 0-.4-.1-.1 0-.2-.1-.2-.3l-.2-.5c-.2.2-.4.3-.5.4-.2.1-.4.2-.5.3-.2.1-.4.1-.6.2s-.4.1-.7.1c-.3 0-.6 0-.8-.1-.3-.1-.5-.2-.7-.4-.2-.2-.3-.4-.4-.6-.1-.2-.2-.5-.2-.8 0-.3.1-.5.2-.8s.4-.5.7-.7c.3-.2.8-.4 1.3-.5.6-.1 1.2-.2 2.1-.2v-.5c0-.5-.1-.8-.3-1.1-.2-.2-.5-.3-.9-.3-.3 0-.5 0-.7.1s-.3.1-.5.2-.3.2-.4.2c-.1.1-.2.1-.4.1-.1 0-.2 0-.3-.1s-.2-.1-.2-.2l-.3-.6c.8-.8 1.8-1.1 3-1.1.4 0 .8.1 1.1.2s.6.3.8.6c.2.2.4.5.5.9.1.3.2.7.2 1.1v4.5zm-3.3-1c.2 0 .3 0 .5 0 .1 0 .3-.1.4-.1s.3-.1.4-.2c.1-.1.2-.2.4-.3v-1.2c-.5 0-.9 0-1.3.1-.3.1-.6.1-.8.2-.2.1-.4.2-.4.3-.1.1-.1.3-.1.4 0 .3.1.5.3.7s.3.1.6.1"/><path d="m416.2 101.6c-.6 0-1.1-.2-1.4-.5-.3-.4-.5-.8-.5-1.5v-4h-.7c-.1 0-.2 0-.2-.1s-.1-.2-.1-.3v-.7l1.2-.2.4-2c0-.1.1-.2.1-.2.1-.1.2-.1.3-.1h.9v2.3h1.9v1.2h-2.1v3.9c0 .2.1.4.2.5.1.1.3.2.4.2.1 0 .2 0 .3 0 .1 0 .1-.1.2-.1.1 0 .1-.1.1-.1 0 0 .1 0 .1 0 .1 0 .1 0 .1 0l.1.1.5.8c-.3.2-.5.4-.9.5-.2.3-.6.3-.9.3"/><path d="m421.3 92.3c0 .1 0 .3-.1.4-.1.1-.1.2-.2.3-.1.1-.2.2-.4.2-.1.1-.3.1-.4.1-.1 0-.3 0-.4-.1-.1-.1-.2-.1-.3-.2-.1-.1-.2-.2-.2-.3-.1-.1-.1-.3-.1-.4 0-.2 0-.3.1-.4s.1-.3.2-.4.2-.2.3-.2c.1-.1.3-.1.4-.1.2 0 .3 0 .4.1.1.1.3.1.4.2s.2.2.2.4.1.2.1.4m-.2 2v7.2h-1.7v-7.2h1.7"/><path d="m426.1 94.2c.5 0 1 .1 1.5.3.4.2.8.4 1.1.7.3.3.5.7.7 1.2.2.5.3 1 .3 1.5 0 .6-.1 1.1-.3 1.5-.2.5-.4.8-.7 1.2-.3.3-.7.6-1.1.7-.4.2-.9.3-1.5.3-.5 0-1-.1-1.5-.3-.4-.2-.8-.4-1.1-.7s-.6-.7-.7-1.2c-.2-.5-.3-1-.3-1.5 0-.6.1-1.1.3-1.5.2-.5.4-.8.7-1.2s.7-.6 1.1-.7c.5-.2 1-.3 1.5-.3m0 6.1c.6 0 1-.2 1.3-.6s.4-1 .4-1.8c0-.8-.1-1.4-.4-1.8-.3-.4-.7-.6-1.3-.6-.6 0-1.1.2-1.3.6s-.4 1-.4 1.8.1 1.4.4 1.8c.2.4.7.6 1.3.6"/><path d="m431 101.5v-7.2h1.1c.2 0 .4.1.4.3l.1.6c.1-.1.3-.3.5-.4.2-.1.3-.2.5-.3.2-.1.4-.2.6-.2.2 0 .4-.1.7-.1.4 0 .7.1 1 .2.3.1.6.3.8.6.2.2.4.5.5.9.1.3.2.7.2 1.1v4.6h-1.7v-4.6c0-.4-.1-.8-.3-1s-.5-.4-.9-.4c-.3 0-.6.1-.8.2-.3.1-.5.3-.7.6v5.2h-2z"/></g><path d="m332.5 99.7h-118.8c-.6 0-1-.4-1-1s.4-1 1-1h118.8c.6 0 1 .4 1 1s-.4 1-1 1" fill="#00bae9"/><g fill="#32353e"><path d="m357.4 161.1c.1 0 .2 0 .3.1l.7.8c-.4.5-.9.9-1.5 1.2-.6.3-1.3.4-2.2.4-.8 0-1.4-.1-2-.4s-1.1-.6-1.5-1.1c-.4-.5-.8-1-1-1.6s-.3-1.3-.3-2.1c0-.8.1-1.5.4-2.1s.6-1.2 1.1-1.6c.5-.5 1-.8 1.6-1.1.6-.3 1.3-.4 2.1-.4.8 0 1.4.1 2 .4.6.2 1 .6 1.4 1l-.6.9c0 .1-.1.1-.1.1-.1 0-.1.1-.2.1-.1 0-.2 0-.3-.1-.1-.1-.3-.2-.4-.3s-.4-.2-.7-.3-.6-.1-1-.1c-.5 0-.9.1-1.3.2-.4.2-.7.4-1 .7s-.5.7-.7 1.1-.2.9-.2 1.5c0 .6.1 1.1.2 1.5s.4.8.7 1.1.6.5 1 .7.8.2 1.2.2c.3 0 .5 0 .7 0 .2 0 .4-.1.6-.1.2-.1.3-.1.5-.2s.3-.2.5-.4c0 0 .1-.1.1-.1-.3.1-.2 0-.1 0"/><path d="m362.8 156.2c.5 0 1 .1 1.5.3.4.2.8.4 1.1.7.3.3.5.7.7 1.2.2.5.3 1 .3 1.5 0 .6-.1 1.1-.3 1.5-.2.5-.4.8-.7 1.2-.3.3-.7.6-1.1.7-.4.2-.9.3-1.5.3-.5 0-1-.1-1.5-.3-.4-.2-.8-.4-1.1-.7s-.6-.7-.7-1.2c-.2-.5-.3-1-.3-1.5 0-.6.1-1.1.3-1.5.2-.5.4-.8.7-1.2s.7-.6 1.1-.7c.4-.2.9-.3 1.5-.3m0 6.1c.6 0 1-.2 1.3-.6s.4-1 .4-1.8c0-.8-.1-1.4-.4-1.8-.3-.4-.7-.6-1.3-.6-.6 0-1.1.2-1.3.6s-.4 1-.4 1.8.1 1.4.4 1.8c.2.4.6.6 1.3.6"/><path d="m367.6 163.5v-7.2h1.1c.2 0 .4.1.4.3l.1.6c.1-.1.3-.3.5-.4.2-.1.3-.2.5-.3.2-.1.4-.2.6-.2.2 0 .4-.1.7-.1.4 0 .7.1 1 .2.3.1.6.3.8.6.2.2.4.5.5.9.1.3.2.7.2 1.1v4.6h-1.7v-4.6c0-.4-.1-.8-.3-1s-.5-.4-.9-.4c-.3 0-.6.1-.8.2-.3.1-.5.3-.7.6v5.2h-2z"/><path d="m378.9 163.5h-1.6l-2.9-7.2h1.4c.1 0 .2 0 .3.1.1.1.1.1.2.2l1.4 3.8c.1.2.1.4.2.7.1.2.1.4.1.6 0-.2.1-.4.1-.6.1-.2.1-.4.2-.7l1.4-3.8c0-.1.1-.2.2-.2s.2-.1.3-.1h1.4l-2.7 7.2"/><path d="m385.6 156.2c.5 0 .9.1 1.2.2.4.1.7.4 1 .6.3.3.5.6.6 1 .2.4.2.9.2 1.4 0 .1 0 .2 0 .3s0 .2-.1.2c0 0-.1.1-.1.1-.1 0-.1 0-.2 0h-4.4c.1.7.2 1.3.6 1.6.3.3.8.5 1.4.5.3 0 .5 0 .7-.1s.4-.1.5-.2c.2-.1.3-.2.4-.2.1-.1.2-.1.3-.1.1 0 .1 0 .2 0 .1 0 .1.1.1.1l.5.6c-.2.2-.4.4-.6.6-.2.2-.5.3-.7.4s-.5.2-.8.2c-.3 0-.5.1-.8.1-.5 0-1-.1-1.4-.2-.4-.2-.8-.4-1.1-.7s-.6-.7-.7-1.2c-.2-.5-.3-1-.3-1.7 0-.5.1-1 .2-1.4.2-.4.4-.8.7-1.1.3-.3.7-.6 1.1-.8.4-.1.9-.2 1.5-.2m0 1.3c-.5 0-.9.1-1.2.4-.3.3-.5.7-.5 1.2h3.2c0-.2 0-.4-.1-.6-.1-.2-.2-.4-.3-.5s-.3-.3-.5-.4-.4-.1-.6-.1"/><path d="m390.1 163.5v-7.2h1c.2 0 .3 0 .4.1.1.1.1.2.1.3l.1.9c.3-.4.6-.8.9-1.1.3-.3.7-.4 1.2-.4.4 0 .6.1.9.2l-.2 1.3c0 .1 0 .1-.1.2 0 0-.1.1-.2.1-.1 0-.2 0-.3 0-.1 0-.3 0-.5 0-.4 0-.7.1-.9.3-.3.2-.5.5-.7.9v4.5h-1.7z"/><path d="m400.1 157.7c0 .1-.1.1-.1.2-.1 0-.1 0-.2 0-.1 0-.2 0-.3-.1-.1 0-.2-.1-.3-.2-.1-.1-.3-.1-.4-.2-.2 0-.4-.1-.6-.1-.3 0-.6.1-.8.2-.2.1-.3.3-.3.6 0 .2 0 .3.2.4s.2.2.4.3c.2.1.4.2.6.2s.4.1.6.2c.2.1.4.2.6.3.2.1.4.2.6.4.2.1.3.3.4.5.1.2.2.5.2.7 0 .3-.1.7-.2 1-.1.3-.3.5-.6.8-.2.2-.5.4-.9.5-.4.1-.8.2-1.2.2-.2 0-.5 0-.7-.1-.2 0-.5-.1-.7-.2-.2-.1-.4-.2-.6-.3s-.3-.2-.5-.4l.4-.7c.1-.1.1-.1.2-.2.1 0 .2-.1.3-.1s.2 0 .3.1.2.1.3.2c.1.1.3.1.4.2.2.1.4.1.6.1.2 0 .4 0 .5-.1.1 0 .3-.1.4-.2.1-.1.2-.2.2-.3 0-.1.1-.2.1-.3 0-.2-.1-.3-.2-.4-.1-.1-.2-.2-.4-.3-.2-.1-.4-.2-.6-.2-.2-.1-.4-.1-.7-.2s-.4-.2-.7-.3c-.2-.1-.4-.2-.6-.4-.2-.2-.3-.3-.4-.6s-.2-.5-.2-.8c0-.3.1-.6.2-.8s.3-.5.5-.7c.2-.2.5-.4.8-.5.3-.1.7-.2 1.2-.2.5 0 .9.1 1.4.2.4.2.7.4 1 .6l-.2 1"/><path d="m404 154.3c0 .1 0 .3-.1.4-.1.1-.1.2-.2.3-.1.1-.2.2-.4.2-.1.1-.3.1-.4.1-.1 0-.3 0-.4-.1-.1-.1-.2-.1-.3-.2-.1-.1-.2-.2-.2-.3-.1-.1-.1-.3-.1-.4 0-.2 0-.3.1-.4s.1-.3.2-.4.2-.2.3-.2c.1-.1.3-.1.4-.1.2 0 .3 0 .4.1.1.1.3.1.4.2s.2.2.2.4.1.2.1.4m-.3 2v7.2h-1.7v-7.2h1.7"/><path d="m408.8 156.2c.5 0 1 .1 1.5.3.4.2.8.4 1.1.7.3.3.5.7.7 1.2.2.5.3 1 .3 1.5 0 .6-.1 1.1-.3 1.5-.2.5-.4.8-.7 1.2-.3.3-.7.6-1.1.7-.4.2-.9.3-1.5.3-.5 0-1-.1-1.5-.3-.4-.2-.8-.4-1.1-.7s-.6-.7-.7-1.2c-.2-.5-.3-1-.3-1.5 0-.6.1-1.1.3-1.5.2-.5.4-.8.7-1.2s.7-.6 1.1-.7c.4-.2.9-.3 1.5-.3m0 6.1c.6 0 1-.2 1.3-.6s.4-1 .4-1.8c0-.8-.1-1.4-.4-1.8-.3-.4-.7-.6-1.3-.6-.6 0-1.1.2-1.3.6s-.4 1-.4 1.8.1 1.4.4 1.8c.2.4.7.6 1.3.6"/><path d="m413.7 163.5v-7.2h1.1c.2 0 .4.1.4.3l.1.6c.1-.1.3-.3.5-.4.2-.1.3-.2.5-.3.2-.1.4-.2.6-.2.2 0 .4-.1.7-.1.4 0 .7.1 1 .2.3.1.6.3.8.6.2.2.4.5.5.9.1.3.2.7.2 1.1v4.6h-1.7v-4.6c0-.4-.1-.8-.3-1s-.5-.4-.9-.4c-.3 0-.6.1-.8.2-.3.1-.5.3-.7.6v5.2h-2z"/></g><path d="m331.5 161.9h-112.5c-.6 0-1-.4-1-1s.4-1 1-1h112.5c.6 0 1 .4 1 1s-.4 1-1 1" fill="#00bae9"/><g fill="#32353e"><path d="m352.3 227.1v4h-1.9v-10.1h3.1c.7 0 1.3.1 1.8.2s.9.3 1.2.6.5.6.7.9c.1.4.2.8.2 1.2 0 .3 0 .7-.2 1-.1.3-.2.6-.4.8-.2.2-.4.5-.7.7s-.6.3-.9.4c.2.1.4.3.6.6l2.5 3.7h-1.7c-.2 0-.3 0-.4-.1-.1-.1-.2-.2-.3-.3l-2.1-3.2c-.1-.1-.2-.2-.3-.3-.1-.1-.2-.1-.4-.1h-.8m0-1.4h1.2c.4 0 .7 0 .9-.1s.5-.2.7-.4c.2-.2.3-.3.4-.6.1-.2.1-.5.1-.7 0-.5-.2-.9-.5-1.2-.3-.3-.9-.4-1.6-.4h-1.2v3.4"/><path d="m362.4 223.7c.5 0 .9.1 1.2.2.4.1.7.4 1 .6s.5.6.6 1c.2.4.2.9.2 1.4 0 .1 0 .2 0 .3s0 .2-.1.2-.1.1-.1.1c-.1 0-.1 0-.2 0h-4.4c.1.7.2 1.3.6 1.6.3.3.8.5 1.4.5.3 0 .5 0 .7-.1.2-.1.4-.1.5-.2.2-.1.3-.2.4-.2.1-.1.2-.1.3-.1.1 0 .1 0 .2 0 .1 0 .1.1.1.1l.5.6c-.2.2-.4.4-.6.6-.2.2-.5.3-.7.4-.3.1-.5.2-.8.2-.3 0-.5.1-.8.1-.5 0-1-.1-1.4-.2-.4-.2-.8-.4-1.1-.7s-.6-.7-.7-1.2-.3-1-.3-1.7c0-.5.1-1 .2-1.4s.4-.8.7-1.1c.3-.3.7-.6 1.1-.8.5-.1 1-.2 1.5-.2m.1 1.3c-.5 0-.9.1-1.2.4-.3.3-.5.7-.5 1.2h3.2c0-.2 0-.4-.1-.6s-.2-.4-.3-.5-.3-.3-.5-.4-.4-.1-.6-.1"/><path d="m369.3 231.1c-.6 0-1.1-.2-1.4-.5-.3-.4-.5-.8-.5-1.5v-4h-.7c-.1 0-.2 0-.2-.1-.1-.1-.1-.2-.1-.3v-.7l1.2-.2.4-2c0-.1.1-.2.1-.2.1-.1.2-.1.3-.1h.9v2.3h1.9v1.2h-1.9v3.9c0 .2.1.4.2.5s.3.2.4.2c.1 0 .2 0 .3 0 .1 0 .1-.1.2-.1s.1-.1.1-.1c0 0 .1 0 .1 0 .1 0 .1 0 .1 0l.1.1.5.8c-.3.2-.5.4-.9.5-.4.3-.7.3-1.1.3"/><path d="m375.3 223.7c.5 0 .9.1 1.2.2.4.1.7.4 1 .6s.5.6.6 1c.2.4.2.9.2 1.4 0 .1 0 .2 0 .3s0 .2-.1.2-.1.1-.1.1c-.1 0-.1 0-.2 0h-4.4c.1.7.2 1.3.6 1.6.3.3.8.5 1.4.5.3 0 .5 0 .7-.1.2-.1.4-.1.5-.2.2-.1.3-.2.4-.2.1-.1.2-.1.3-.1.1 0 .1 0 .2 0 .1 0 .1.1.1.1l.5.6c-.2.2-.4.4-.6.6-.2.2-.5.3-.7.4-.3.1-.5.2-.8.2-.3 0-.5.1-.8.1-.5 0-1-.1-1.4-.2-.4-.2-.8-.4-1.1-.7s-.6-.7-.7-1.2c-.2-.5-.3-1-.3-1.7 0-.5.1-1 .2-1.4.2-.4.4-.8.7-1.1.3-.3.7-.6 1.1-.8.5-.1 1-.2 1.5-.2m.1 1.3c-.5 0-.9.1-1.2.4-.3.3-.5.7-.5 1.2h3.2c0-.2 0-.4-.1-.6s-.2-.4-.3-.5-.3-.3-.5-.4-.4-.1-.6-.1"/><path d="m379.9 231v-7.2h1.1c.2 0 .4.1.4.3l.1.6c.1-.2.3-.3.5-.4s.3-.2.5-.3c.2-.1.4-.2.6-.2.2 0 .4-.1.7-.1.4 0 .7.1 1 .2s.6.3.8.6c.2.2.4.5.5.9.1.3.2.7.2 1.1v4.6h-1.7v-4.6c0-.4-.1-.8-.3-1s-.5-.4-.9-.4c-.3 0-.6.1-.8.2-.3.1-.5.3-.7.6v5.2h-2z"/><path d="m390.2 231.1c-.6 0-1.1-.2-1.4-.5-.3-.4-.5-.8-.5-1.5v-4h-.7c-.1 0-.2 0-.2-.1s-.1-.2-.1-.3v-.7l1.2-.2.4-2c0-.1.1-.2.1-.2.1-.1.2-.1.3-.1h.9v2.3h1.9v1.2h-2.1v3.9c0 .2.1.4.2.5.1.1.3.2.4.2.1 0 .2 0 .3 0 .1 0 .1-.1.2-.1s.1-.1.1-.1c0 0 .1 0 .1 0 .1 0 .1 0 .1 0l.1.1.5.8c-.3.2-.5.4-.9.5-.2.3-.6.3-.9.3"/><path d="m395.3 221.8c0 .1 0 .3-.1.4-.1.1-.1.2-.2.3s-.2.2-.4.2c-.1.1-.3.1-.4.1-.1 0-.3 0-.4-.1s-.2-.1-.3-.2-.2-.2-.2-.3c-.1-.1-.1-.3-.1-.4 0-.2 0-.3.1-.4.1-.1.1-.3.2-.3s.2-.2.3-.2.3-.1.4-.1c.2 0 .3 0 .4.1.1.1.3.1.4.2s.2.2.2.3c.1.1.1.2.1.4m-.2 2v7.2h-1.7v-7.2h1.7"/><path d="m400.1 223.7c.5 0 1 .1 1.5.3.4.2.8.4 1.1.7.3.3.5.7.7 1.2.2.5.3 1 .3 1.5 0 .6-.1 1.1-.3 1.5-.2.5-.4.8-.7 1.2-.3.3-.7.6-1.1.7s-.9.3-1.5.3c-.5 0-1-.1-1.5-.3-.4-.2-.8-.4-1.1-.7s-.6-.7-.7-1.2c-.2-.5-.3-1-.3-1.5 0-.6.1-1.1.3-1.5.2-.5.4-.8.7-1.2.3-.3.7-.6 1.1-.7.5-.2 1-.3 1.5-.3m0 6.1c.6 0 1-.2 1.3-.6.3-.4.4-1 .4-1.8 0-.8-.1-1.4-.4-1.8s-.7-.6-1.3-.6c-.6 0-1.1.2-1.3.6s-.4 1-.4 1.8c0 .8.1 1.4.4 1.8.2.4.7.6 1.3.6"/><path d="m405 231v-7.2h1.1c.2 0 .4.1.4.3l.1.6c.1-.2.3-.3.5-.4s.3-.2.5-.3c.2-.1.4-.2.6-.2.2 0 .4-.1.7-.1.4 0 .7.1 1 .2s.6.3.8.6c.2.2.4.5.5.9.1.3.2.7.2 1.1v4.6h-1.7v-4.6c0-.4-.1-.8-.3-1s-.5-.4-.9-.4c-.3 0-.6.1-.8.2-.3.1-.5.3-.7.6v5.2h-2z"/></g><g fill="#00bae9"><path d="m330 229.5h-109c-.6 0-1-.4-1-1s.4-1 1-1h109c.6 0 1 .4 1 1s-.4 1-1 1"/><path d="m244.5 65.8c-.2 0-.4 0-.5-.1l-8.9-5.4 9.2-4.9c.5-.3 1.1-.1 1.4.4.3.5.1 1.1-.4 1.4l-6.1 3.3 5.9 3.6c.5.3.6.9.3 1.4-.2.1-.6.3-.9.3"/><path d="m219.8 104c-.2 0-.4 0-.5-.1l-8.9-5.4 9.2-4.9c.5-.3 1.1-.1 1.4.4s.1 1.1-.4 1.4l-6.1 3.3 5.9 3.6c.5.3.6.9.3 1.4-.2.2-.5.3-.9.3"/><path d="m223.8 166.2c-.2 0-.4 0-.5-.1l-8.9-5.4 9.2-4.9c.5-.3 1.1-.1 1.4.4.3.5.1 1.1-.4 1.4l-6.1 3.3 5.9 3.6c.5.3.6.9.3 1.4-.2.1-.5.3-.9.3"/><path d="m228.1 233.8c-.2 0-.4 0-.5-.1l-8.9-5.5 9.2-4.9c.5-.3 1.1-.1 1.4.4.3.5.1 1.1-.4 1.4l-6.1 3.3 5.9 3.6c.5.3.6.9.3 1.4-.2.3-.5.4-.9.4"/></g></svg>