<svg height="28" viewBox="0 0 31 28" width="31" xmlns="http://www.w3.org/2000/svg"><path d="m1260 4256h-6.85142v-9.84312c0-2.57642-1.07173-4.33528-3.42845-4.33528-1.80262 0-2.80509 1.18692-3.27169 2.3308-.17498.41058-.14764.98252-.14764 1.55446v10.29314h-6.78763s.08749-17.43613 0-19.02107h6.78763v2.98521c.40099-1.30524 2.56997-3.16808 6.03122-3.16808 4.29421 0 7.66798 2.73599 7.66798 8.62752zm-27.35101-21.40027h-.04375c-2.1872 0-3.60524-1.45406-3.60524-3.29718 0-1.87897 1.45996-3.30255 3.69091-3.30255 2.22913 0 3.59978 1.41999 3.64352 3.29718 0 1.84312-1.41439 3.30255-3.68544 3.30255zm-2.86706 2.3792h6.04215v19.02107h-6.04215z" fill-rule="evenodd" transform="translate(-1229 -4228)"/></svg>