<svg height="27" viewBox="0 0 38 27" width="38" xmlns="http://www.w3.org/2000/svg"><path d="m1174.0765 4250.47905-.00119-10.78584 10.26713 5.41151zm22.5435-12.65486s-.37169-2.64518-1.5105-3.81002c-1.44519-1.52952-3.06494-1.53672-3.80713-1.62549-5.31762-.38868-13.29406-.38868-13.29406-.38868h-.01662s-7.97644 0-13.29406.38868c-.74338.08877-2.36194.09597-3.80832 1.62549-1.13881 1.16484-1.50931 3.81002-1.50931 3.81002s-.38 3.10703-.38 6.21287v2.91269c0 3.10703.38 6.21287.38 6.21287s.3705 2.64517 1.50931 3.81001c1.44638 1.52952 3.34519 1.48154 4.19069 1.64109 3.04.29511 12.92.38628 12.92.38628s7.98475-.012 13.30237-.40068c.74219-.08997 2.36194-.09717 3.80713-1.62669 1.13881-1.16484 1.5105-3.81001 1.5105-3.81001s.38-3.10584.38-6.21287v-2.91269c0-3.10584-.38-6.21287-.38-6.21287z" fill-rule="evenodd" transform="translate(-1159 -4232)"/></svg>